<svg id="Layer_1" data-name="Layer 1" xmlns="http://www.w3.org/2000/svg" viewBox="0 0 340.21 340.16"><defs><style>.cls-1{fill:#fff;fill-rule:evenodd;}</style></defs><path class="cls-1" d="M115,175.51H115a.91.91,0,0,0,0-.33h0A.88.88,0,0,1,115,175.51Z" transform="translate(0.07 0)"/><path class="cls-1" d="M193,7.49a1,1,0,0,0-.18.13h-.09Z" transform="translate(0.07 0)"/><path class="cls-1" d="M339.79,183a171,171,0,0,1-4.61,30.08c-1,4-2.11,8-3.38,11.89h0a167.42,167.42,0,0,1-28.64,53,53.47,53.47,0,0,0-1.61-8,65.81,65.81,0,0,0-5.71-14.07c-9.29-16.88-26.11-30.92-46.73-40-2.88-1.28-5.84-2.43-8.84-3.49h0c-1.46-.51-43.74-15.93-54.65-17.7a112.24,112.24,0,0,0-25.1-1.38c-1.16.06-2.28.15-3.4.26a80.87,80.87,0,0,0-24.59,6.07,65.53,65.53,0,0,0-9.37,4.87,157.39,157.39,0,0,0,8,17.82q2.82,5.37,6.08,10.59a164.37,164.37,0,0,0,131.58,77.05q-3.94,2.82-8.17,5.39a166.83,166.83,0,0,1-77.21,24.51,173.08,173.08,0,0,1-157.54-81C-22.81,180.58-1,78.37,74.16,28.2c1.73-1.14,3.45-2.26,5.2-3.34A167.83,167.83,0,0,1,182.44.68a183.49,183.49,0,0,1,18.4,2.62h.06a173.83,173.83,0,0,1,52,19.38A12.7,12.7,0,0,1,258.44,29c10.06,25.84-5.78,62.34-38.66,93.2a207.1,207.1,0,0,1-20.63,17l-.12.09c-1.42.93-2.82,1.92-4.15,2.91h0q-4.45,3.06-9.17,5.94a211.43,211.43,0,0,1-41.08,19.71,172.23,172.23,0,0,1-29.6,7.63,1.07,1.07,0,0,0-.06-.3h0a200.51,200.51,0,0,0,30.46-11.09,226.77,226.77,0,0,0,24.33-13,219.3,219.3,0,0,0,34.13-25.89c26.5-24.7,42.07-52.83,42.07-76a41.57,41.57,0,0,0-6.08-22.44c-8-12.87-28.07-17.4-47-19.09a1.09,1.09,0,0,1,.17-.13l-.26.13h.09c-1.64.93-3.25,1.9-4.87,2.89-57.36,35.29-84.24,101.51-73,164.67h0a.91.91,0,0,1,0,.33H115c.18,1.08.39,2.14.63,3.22-.2-1.06-.42-2.14-.6-3.19A172.69,172.69,0,0,0,144.74,168a213.45,213.45,0,0,0,41.06-19.68c3.13-2,6.17-3.93,9.15-6h0c1.42-1,2.81-2,4.17-2.91l.09-.09a121,121,0,0,1,50.16-18.72h0c20.8-2.82,54.86,3.93,75.09,17.82,5.4,3.66,9.53,6.75,14,10.39.51,3.64.93,7.26,1.21,10.9A166.23,166.23,0,0,1,339.79,183Z" transform="translate(0.07 0)"/><path class="cls-1" d="M115,175.2a1.07,1.07,0,0,1,.06.31H115a.91.91,0,0,0,0-.33h0Z" transform="translate(0.07 0)"/><path class="cls-1" d="M193,7.49a1,1,0,0,0-.18.13h-.09Z" transform="translate(0.07 0)"/></svg>